# xmcd CD database file
#
# Track frame offsets:
#	150
#	16570
#	29187
#	44737
#	62230
#	83275
#	100357
#	113910
#	129735
#	147242
#	163300
#	176987
#
# Disc length: 2587 seconds
#
# Revision: 2
# Processed by: cddbd v1.5.2PL0 Copyright (c) Steve Scherf et al.
# Submitted via: CDex 1.70beta2
#
DISCID=ac0a190c
DTITLE=Mino Reitano - I Grandi Successi Originali - CD2
DYEAR=2000
DGENRE=Pop
TTITLE0=Era il tempo delle more
TTITLE1=Canne al vento
TTITLE2=Una ferita in fondo al cuore
TTITLE3=Una ragione di piu'
TTITLE4=Se tu sapessi amore mio
TTITLE5=Stasera non si ride e non si balla
TTITLE6=L'amore e un aquilone
TTITLE7=Tre parole al vento
TTITLE8=Insieme noi
TTITLE9=E se ti voglio
TTITLE10=Sogno
TTITLE11=Ciao, vita mia
EXTD=YEAR: 2000
EXTT0=
EXTT1=
EXTT2=
EXTT3=
EXTT4=
EXTT5=
EXTT6=
EXTT7=
EXTT8=
EXTT9=
EXTT10=
EXTT11=
PLAYORDER=
